<svg xmlns="http://www.w3.org/2000/svg" version="1.1" xmlns:xlink="http://www.w3.org/1999/xlink" xmlns:svgjs="http://svgjs.com/svgjs" width="512" height="512" x="0" y="0" viewBox="0 0 682.667 682.667" style="enable-background:new 0 0 512 512" xml:space="preserve"><g><g fill="#FFD844"><path d="M320 0c-10.355 0-18.75 8.395-18.75 18.75V79c0 10.355 8.395 18.75 18.75 18.75s18.75-8.395 18.75-18.75V18.75C338.75 8.395 330.355 0 320 0zM120.242 93.727c-7.316-7.32-19.191-7.32-26.512 0-7.324 7.324-7.324 19.195 0 26.515l42.602 42.606c7.324 7.324 19.195 7.324 26.516 0 7.324-7.32 7.324-19.196 0-26.516zM136.324 477.156 93.72 519.762c-7.32 7.324-7.32 19.191 0 26.52 7.328 7.32 19.195 7.32 26.52 0l42.605-42.606c7.32-7.324 7.32-19.192 0-26.52-7.328-7.32-19.196-7.316-26.52 0zM320 542.25c-10.355 0-18.75 8.395-18.75 18.75v60.25c0 10.355 8.395 18.75 18.75 18.75s18.75-8.395 18.75-18.75V561c0-10.355-8.395-18.75-18.75-18.75zM97.75 320c0-10.355-8.395-18.75-18.75-18.75H18.75C8.395 301.25 0 309.645 0 320s8.395 18.75 18.75 18.75H79c10.355 0 18.75-8.395 18.75-18.75zm0 0" fill="#FFD844" data-original="#ffd844"></path></g><path fill="#FFF16C" d="M320 479.336c-87.855 0-159.336-71.48-159.336-159.336S232.144 160.664 320 160.664 479.336 232.144 479.336 320 407.856 479.336 320 479.336zm0 0" data-original="#fff16c"></path><path fill="#FFD844" d="M479.336 320c0-87.855-71.48-159.336-159.336-159.336v318.672c87.855 0 159.336-71.48 159.336-159.336zm0 0" data-original="#ffd844"></path><path fill="#FFA800" d="m503.676 162.844 42.605-42.61c7.32-7.32 7.32-19.187 0-26.515-7.328-7.32-19.195-7.32-26.515 0l-42.61 42.605c-7.316 7.324-7.316 19.192 0 26.52 7.328 7.316 19.196 7.316 26.52 0zM503.668 477.152c-7.32-7.324-19.195-7.324-26.516 0-7.324 7.32-7.324 19.196 0 26.516l42.606 42.605c7.32 7.32 19.191 7.32 26.515 0 7.32-7.324 7.32-19.195 0-26.515zM621.25 301.25H561c-10.355 0-18.75 8.395-18.75 18.75s8.395 18.75 18.75 18.75h60.25c10.355 0 18.75-8.395 18.75-18.75s-8.395-18.75-18.75-18.75zM320 0v97.75c10.355 0 18.75-8.395 18.75-18.75V18.75C338.75 8.395 330.355 0 320 0zM320 542.25V640c10.355 0 18.75-8.395 18.75-18.75V561c0-10.355-8.395-18.75-18.75-18.75zm0 0" data-original="#ffa800"></path></g></svg>