<svg xmlns="http://www.w3.org/2000/svg" version="1.1" xmlns:xlink="http://www.w3.org/1999/xlink" xmlns:svgjs="http://svgjs.com/svgjs" width="512" height="512" x="0" y="0" viewBox="0 0 512 512" style="enable-background:new 0 0 512 512" xml:space="preserve"><defs><linearGradient id="a" x1="256" x2="256" y1="512" y2="0" gradientUnits="userSpaceOnUse"><stop stop-opacity="1" stop-color="#fd3a84" offset="0" data-darkreader-inline-stopcolor="" style="--darkreader-inline-stopcolor:#b40041;"></stop><stop stop-opacity="1" stop-color="#211512" offset="0" data-darkreader-inline-stopcolor="" style="--darkreader-inline-stopcolor:#160c09;"></stop><stop stop-opacity="1" stop-color="#211512" offset="0" data-darkreader-inline-stopcolor="" style="--darkreader-inline-stopcolor:#160c09;"></stop><stop stop-opacity="1" stop-color="#bb3d19" offset="1" data-darkreader-inline-stopcolor="" style="--darkreader-inline-stopcolor:#9f3010;"></stop></linearGradient></defs><g><linearGradient id="a" x1="256" x2="256" y1="512" y2="0" gradientUnits="userSpaceOnUse"><stop stop-opacity="1" stop-color="#fd3a84" offset="0" data-darkreader-inline-stopcolor="" style="--darkreader-inline-stopcolor:#b40041;"></stop><stop stop-opacity="1" stop-color="#211512" offset="0" data-darkreader-inline-stopcolor="" style="--darkreader-inline-stopcolor:#160c09;"></stop><stop stop-opacity="1" stop-color="#211512" offset="0" data-darkreader-inline-stopcolor="" style="--darkreader-inline-stopcolor:#160c09;"></stop><stop stop-opacity="1" stop-color="#bb3d19" offset="1" data-darkreader-inline-stopcolor="" style="--darkreader-inline-stopcolor:#9f3010;"></stop></linearGradient><path fill="url(&quot;#a&quot;)" d="M256 422c8.284 0 15-6.716 15-15V227c0-8.284-6.716-15-15-15s-15 6.716-15 15v180c0 8.284 6.716 15 15 15zm66.044-.052c.424.035.845.053 1.262.053 7.72 0 14.279-5.924 14.932-13.756l14.996-180c.688-8.255-5.447-15.505-13.703-16.193-8.267-.692-15.506 5.448-16.194 13.703l-14.996 180c-.688 8.255 5.448 15.505 13.703 16.193zM436 60H331V45c0-24.813-20.187-45-45-45h-60c-24.813 0-45 20.187-45 45v15H76c-8.284 0-15 6.716-15 15s6.716 15 15 15h360c8.284 0 15-6.716 15-15s-6.716-15-15-15zm-135 0h-90V45c0-8.271 6.729-15 15-15h60c8.271 0 15 6.729 15 15zM173.762 408.245c.652 7.833 7.211 13.756 14.932 13.756.417 0 .839-.018 1.262-.053 8.255-.688 14.391-7.938 13.703-16.193l-14.996-180c-.688-8.255-7.937-14.389-16.194-13.703-8.255.688-14.391 7.938-13.703 16.193zM406 122H106a14.998 14.998 0 0 0-14.948 16.245l27.708 332.492C120.688 493.875 140.386 512 163.604 512h184.792c23.218 0 42.916-18.125 44.845-41.263l27.708-332.491A15.003 15.003 0 0 0 406 122zm-42.656 346.245c-.643 7.713-7.209 13.755-14.948 13.755H163.604c-7.739 0-14.306-6.042-14.948-13.754L122.302 152h267.396z" data-original="url(#a)"></path></g></svg>