<svg xmlns="http://www.w3.org/2000/svg" version="1.1" xmlns:xlink="http://www.w3.org/1999/xlink" xmlns:svgjs="http://svgjs.com/svgjs" width="512" height="512" x="0" y="0" viewBox="0 0 64 64" style="enable-background:new 0 0 512 512" xml:space="preserve" class=""><g transform="matrix(0.7100000000000003,0,0,0.7100000000000003,4.2799999999999905,14.27999999999999)"><g fill="#FFFFFF" data-name="Layer 60"><path d="M49 32a.76.76 0 0 0-.23-.54L43.23 26a.75.75 0 0 0-1.06 0 .74.74 0 0 0 0 1.06l4.24 4.24h-5.26a.75.75 0 0 0 0 1.5h5.26L42.17 37a.74.74 0 0 0 0 1.06.71.71 0 0 0 .53.22.74.74 0 0 0 .53-.22l5.51-5.51A.76.76 0 0 0 49 32zM33.74 15.25A.75.75 0 0 0 33 16v32a.75.75 0 0 0 1.5 0V16a.76.76 0 0 0-.76-.75zM37.25 24.23a.74.74 0 0 0-.75.75V39.8a.75.75 0 0 0 1.5 0V25a.75.75 0 0 0-.75-.77zM23.37 31.46 17.86 26a.75.75 0 1 0-1.06 1l4.2 4.25h-5.22a.75.75 0 0 0 0 1.5H21L16.8 37a.75.75 0 0 0 0 1.06.75.75 0 0 0 1.06 0l5.51-5.51a.75.75 0 0 0 0-1.08zM30.26 15.25a.76.76 0 0 0-.75.75v32A.75.75 0 0 0 31 48V16a.75.75 0 0 0-.74-.75zM26.75 23.45a.75.75 0 0 0-.75.75V39a.75.75 0 1 0 1.5 0V24.2a.74.74 0 0 0-.75-.75z" fill="#FFFFFF" data-original="#ffffff"></path></g><rect width="57.5" height="57.5" x="3.25" y="3.25" fill="#8ABC70" data-name="Layer 61" rx="11.29" data-original="#ffc048" class=""></rect></g></svg>