<svg xmlns="http://www.w3.org/2000/svg" version="1.1" xmlns:xlink="http://www.w3.org/1999/xlink" xmlns:svgjs="http://svgjs.com/svgjs" width="512" height="512" x="0" y="0" viewBox="0 0 682.667 682.667" style="enable-background:new 0 0 512 512" xml:space="preserve" class=""><g><defs><clipPath id="a" clipPathUnits="userSpaceOnUse"><path d="M0 512h512V0H0Z" fill="#000000" data-original="#000000"></path></clipPath></defs><g clip-path="url(#a)" transform="matrix(1.33333 0 0 -1.33333 0 682.667)"><path d="M0 0c0 135.863-110.138 246.001-246.001 246.001-135.862 0-246-110.138-246-246.001 0-135.862 110.138-246 246-246C-110.138-246 0-135.862 0 0m-446 0c0 110.457 89.542 200 199.999 200 110.458 0 200-89.543 200-200s-89.542-200-200-200C-356.458-200-446-110.457-446 0" style="fill-opacity:1;fill-rule:evenodd;stroke:none" transform="translate(502 256.002)" fill="#FF5D7D" data-original="#ff5d7d"></path><path d="M0 0c-110.457 0-199.999-89.543-199.999-200S-110.457-400 0-400c110.458 0 200 89.543 200 200S110.458 0 0 0" style="fill-opacity:1;fill-rule:evenodd;stroke:none" transform="translate(255.999 456.002)" fill="#FF9EB1" data-original="#ff9eb1" class=""></path><path d="M0 0h-35v80H0" style="stroke-linecap: round; stroke-linejoin: round; stroke-miterlimit: 22.926; stroke-dasharray: none; stroke-opacity: 1;" transform="translate(211.081 216.001)" fill="none" stroke="#000000" stroke-width="20px" stroke-linecap="round" stroke-linejoin="round" stroke-miterlimit="22.926" stroke-dasharray="none" stroke-opacity="" data-original="#000000" class=""></path><path d="M0 0h19.124" style="stroke-linecap: round; stroke-linejoin: round; stroke-miterlimit: 22.926; stroke-dasharray: none; stroke-opacity: 1;" transform="translate(181.582 256.002)" fill="none" stroke="#000000" stroke-width="20px" stroke-linecap="round" stroke-linejoin="round" stroke-miterlimit="22.926" stroke-dasharray="none" stroke-opacity="" data-original="#000000" class=""></path><path d="M0 0v-76.937" style="stroke-linecap: round; stroke-linejoin: round; stroke-miterlimit: 22.926; stroke-dasharray: none; stroke-opacity: 1;" transform="translate(388.418 292.938)" fill="none" stroke="#000000" stroke-width="20px" stroke-linecap="round" stroke-linejoin="round" stroke-miterlimit="22.926" stroke-dasharray="none" stroke-opacity="" data-original="#000000" class=""></path><path d="M0 0h34.999" style="stroke-linecap: round; stroke-linejoin: round; stroke-miterlimit: 22.926; stroke-dasharray: none; stroke-opacity: 1;" transform="translate(370.918 296.001)" fill="none" stroke="#000000" stroke-width="20px" stroke-linecap="round" stroke-linejoin="round" stroke-miterlimit="22.926" stroke-dasharray="none" stroke-opacity="" data-original="#000000" class=""></path><path d="M0 0v80.001h19.999c11.001 0 20-9 20-20s-8.999-20-20-20H3.75" style="stroke-linecap: round; stroke-linejoin: round; stroke-miterlimit: 22.926; stroke-dasharray: none; stroke-opacity: 1;" transform="translate(106.082 216.001)" fill="none" stroke="#000000" stroke-width="20px" stroke-linecap="round" stroke-linejoin="round" stroke-miterlimit="22.926" stroke-dasharray="none" stroke-opacity="" data-original="#000000" class=""></path><path d="m0 0 20-40.001" style="stroke-linecap: round; stroke-linejoin: round; stroke-miterlimit: 22.926; stroke-dasharray: none; stroke-opacity: 1;" transform="translate(126.081 256.002)" fill="none" stroke="#000000" stroke-width="20px" stroke-linecap="round" stroke-linejoin="round" stroke-miterlimit="22.926" stroke-dasharray="none" stroke-opacity="" data-original="#000000" class=""></path><path d="m0 0-5.316 2.202c-9.986 4.136-21.539-.649-25.675-10.635-4.136-9.985.649-21.538 10.635-25.674l5.317-2.203 5.317-2.202C.263-42.648 5.048-54.201.912-64.186c-4.136-9.986-15.689-14.771-25.675-10.635l-5.316 2.202" style="stroke-linecap: round; stroke-linejoin: round; stroke-miterlimit: 22.926; stroke-dasharray: none; stroke-opacity: 1;" transform="translate(273.522 292.311)" fill="none" stroke="#000000" stroke-width="20px" stroke-linecap="round" stroke-linejoin="round" stroke-miterlimit="22.926" stroke-dasharray="none" stroke-opacity="" data-original="#000000" class=""></path><path d="M0 0h-35v80H0" style="stroke-linecap: round; stroke-linejoin: round; stroke-miterlimit: 22.926; stroke-dasharray: none; stroke-opacity: 1;" transform="translate(340.918 216.001)" fill="none" stroke="#000000" stroke-width="20px" stroke-linecap="round" stroke-linejoin="round" stroke-miterlimit="22.926" stroke-dasharray="none" stroke-opacity="" data-original="#000000" class=""></path><path d="M0 0h19.124" style="stroke-linecap: round; stroke-linejoin: round; stroke-miterlimit: 22.926; stroke-dasharray: none; stroke-opacity: 1;" transform="translate(311.418 256.002)" fill="none" stroke="#000000" stroke-width="20px" stroke-linecap="round" stroke-linejoin="round" stroke-miterlimit="22.926" stroke-dasharray="none" stroke-opacity="" data-original="#000000" class=""></path><path d="M0 0c135.493 0 246.002 110.508 246.002 246.001s-110.509 246-246.002 246c-135.492 0-246-110.507-246-246S-135.492 0 0 0Z" style="stroke-linecap: round; stroke-linejoin: round; stroke-miterlimit: 22.926; stroke-dasharray: none; stroke-opacity: 1;" transform="translate(255.999 10.001)" fill="none" stroke="#000000" stroke-width="20px" stroke-linecap="round" stroke-linejoin="round" stroke-miterlimit="22.926" stroke-dasharray="none" stroke-opacity="" data-original="#000000" class=""></path><path d="M0 0c30.782 19.337 67.198 30.532 106.233 30.532 110.458 0 200-89.543 200-200s-89.542-200-200-200c-110.457 0-199.999 89.543-199.999 200 0 39.033 11.191 75.45 30.529 106.228" style="stroke-linecap: round; stroke-linejoin: round; stroke-miterlimit: 22.926; stroke-dasharray: none; stroke-opacity: 1;" transform="translate(149.766 425.47)" fill="none" stroke="#000000" stroke-width="20px" stroke-linecap="round" stroke-linejoin="round" stroke-miterlimit="22.926" stroke-dasharray="none" stroke-opacity="" data-original="#000000" class=""></path><path d="m0 0 .005.005" style="stroke-linecap: round; stroke-linejoin: round; stroke-miterlimit: 2.613; stroke-dasharray: none; stroke-opacity: 1;" transform="translate(114.573 397.418)" fill="none" stroke="#000000" stroke-width="20px" stroke-linecap="round" stroke-linejoin="round" stroke-miterlimit="2.613" stroke-dasharray="none" stroke-opacity="" data-original="#000000" class=""></path></g></g></svg>